<svg enable-background="new 0 0 32 32" viewBox="0 0 32 32" xmlns="http://www.w3.org/2000/svg"><path d="m27.676 31.36c-.199 0-.36-.161-.36-.36 0-.612-.257-.898-.583-1.26-.36-.4-.769-.854-.769-1.743s.408-1.342.769-1.742c.326-.361.583-.647.583-1.26 0-.611-.257-.896-.583-1.258-.36-.399-.769-.853-.769-1.74s.409-1.341.769-1.74c.326-.361.583-.646.583-1.257 0-.199.161-.36.36-.36s.36.161.36.36c0 .888-.408 1.34-.769 1.739-.326.361-.583.646-.583 1.258s.257.896.583 1.258c.36.399.769.853.769 1.74 0 .889-.408 1.342-.769 1.742-.326.361-.583.647-.583 1.26s.257.899.583 1.261c.36.4.769.854.769 1.742 0 .199-.161.36-.36.36zm-7 0c-.199 0-.36-.161-.36-.36 0-.612-.257-.898-.583-1.26-.36-.4-.769-.854-.769-1.743s.408-1.342.769-1.742c.326-.361.583-.647.583-1.26 0-.611-.257-.896-.583-1.258-.36-.399-.769-.853-.769-1.74s.409-1.341.769-1.74c.326-.361.583-.646.583-1.257 0-.199.161-.36.36-.36s.36.161.36.36c0 .888-.408 1.34-.769 1.739-.326.361-.583.646-.583 1.258s.257.896.583 1.258c.36.399.769.853.769 1.74 0 .889-.408 1.342-.769 1.742-.326.361-.583.647-.583 1.26s.257.899.583 1.261c.36.4.769.854.769 1.742 0 .199-.161.36-.36.36zm-7 0c-.199 0-.36-.161-.36-.36 0-.612-.257-.898-.583-1.26-.36-.4-.768-.854-.768-1.743s.408-1.342.768-1.742c.326-.361.583-.647.583-1.26 0-.611-.257-.896-.583-1.258-.36-.399-.768-.853-.768-1.74s.408-1.341.769-1.74c.326-.361.583-.646.583-1.257 0-.199.161-.36.36-.36s.36.161.36.36c0 .888-.408 1.34-.768 1.739-.326.361-.583.646-.583 1.258s.257.896.583 1.258c.36.399.768.853.768 1.74 0 .889-.408 1.342-.768 1.742-.326.361-.583.647-.583 1.26s.258.899.583 1.261c.36.4.768.854.768 1.742-.001.199-.162.36-.361.36zm-7 0c-.199 0-.36-.161-.36-.36 0-.612-.257-.898-.583-1.26-.36-.4-.768-.854-.768-1.743s.408-1.342.768-1.742c.326-.361.583-.647.583-1.26 0-.611-.257-.896-.583-1.258-.36-.399-.768-.853-.768-1.74s.408-1.341.769-1.74c.325-.361.582-.647.582-1.257 0-.199.161-.36.36-.36s.36.161.36.36c0 .888-.408 1.34-.768 1.739-.326.361-.583.646-.583 1.258s.257.896.583 1.258c.36.399.768.853.768 1.74 0 .889-.408 1.342-.768 1.742-.326.361-.583.647-.583 1.26s.258.899.583 1.261c.36.4.768.854.768 1.742 0 .199-.161.36-.36.36zm22.324-14h-26c-1.301 0-2.36-1.059-2.36-2.36v-14c0-.199.161-.36.36-.36h30c.199 0 .36.161.36.36v14c0 1.301-1.058 2.36-2.36 2.36zm-27.64-16v13.64c0 .904.736 1.64 1.64 1.64h26c.904 0 1.64-.736 1.64-1.64v-13.64zm26.64 13h-24c-.199 0-.36-.161-.36-.36s.161-.36.36-.36h24c.199 0 .36.161.36.36s-.161.36-.36.36zm0-3h-24c-.199 0-.36-.161-.36-.36s.161-.36.36-.36h24c.199 0 .36.161.36.36s-.161.36-.36.36zm0-3h-24c-.199 0-.36-.161-.36-.36s.161-.36.36-.36h24c.199 0 .36.161.36.36s-.161.36-.36.36zm0-3h-4c-.199 0-.36-.161-.36-.36s.161-.36.36-.36h4c.199 0 .36.161.36.36s-.161.36-.36.36z"/><path d="m0 0h32v32h-32z" fill="none"/></svg>